<?xml version="1.0" encoding="utf-8"?>
<!-- Generator: Adobe Illustrator 23.0.1, SVG Export Plug-In . SVG Version: 6.00 Build 0)  -->
<svg version="1.1" id="Layer_1" xmlns="http://www.w3.org/2000/svg" xmlns:xlink="http://www.w3.org/1999/xlink" x="0px" y="0px"
	 viewBox="0 0 500 500" style="enable-background:new 0 0 500 500;" xml:space="preserve">
<style type="text/css">
	.st0{font-family:'Luminari-Regular';}
	.st1{font-size:343.1302px;}
</style>
<g>
	<path d="M249.5,96c41.27,0,80.07,16.07,109.25,45.25C387.93,170.43,404,209.23,404,250.5s-16.07,80.07-45.25,109.25
		C329.57,388.93,290.77,405,249.5,405s-80.07-16.07-109.25-45.25C111.07,330.57,95,291.77,95,250.5s16.07-80.07,45.25-109.25
		S208.23,96,249.5,96 M249.5,64C146.5,64,63,147.5,63,250.5S146.5,437,249.5,437S436,353.5,436,250.5S352.5,64,249.5,64L249.5,64z"
		/>
</g>
<text transform="matrix(1 0 0 1 200.4834 359.6445)" class="st0 st1">i</text>
</svg>
